  0
SECTION
  2
HEADER
  9
$ACADVER
  1
AC1009
  9
$INSUNITS
 70
6
  0
ENDSEC
  0
SECTION
  2
TABLES
  0
TABLE
  2
LAYER
 70
3
  0
LAYER
  2
Column_400x400
 70
0
 62
7
  6
CONTINUOUS
  0
LAYER
  2
RHS_200x100x8
 70
0
 62
7
  6
CONTINUOUS
  0
LAYER
  2
UB_406x178x60
 70
0
 62
7
  6
CONTINUOUS
  0
ENDTAB
  0
ENDSEC
  0
SECTION
  2
ENTITIES
  0
LINE
  8
UB_406x178x60
 10
0.0
 20
0.0
 30
3.5
 11
3.0
 21
0.0
 31
3.5
  0
LINE
  8
UB_406x178x60
 10
3.0
 20
0.0
 30
3.5
 11
6.0
 21
0.0
 31
3.5
  0
LINE
  8
UB_406x178x60
 10
0.0
 20
5.0
 30
3.5
 11
6.0
 21
5.0
 31
3.5
  0
LINE
  8
RHS_200x100x8
 10
0.0
 20
0.0
 30
7.0
 11
6.0
 21
0.0
 31
7.0
  0
LINE
  8
RHS_200x100x8
 10
0.0
 20
5.0
 30
7.0
 11
6.0
 21
5.0
 31
7.0
  0
LINE
  8
UB_406x178x60
 10
0.0
 20
0.0
 30
3.5
 11
0.0
 21
5.0
 31
3.5
  0
LINE
  8
UB_406x178x60
 10
6.0
 20
0.0
 30
3.5
 11
6.0
 21
5.0
 31
3.5
  0
LINE
  8
RHS_200x100x8
 10
0.0
 20
0.0
 30
7.0
 11
0.0
 21
5.0
 31
7.0
  0
LINE
  8
RHS_200x100x8
 10
6.0
 20
0.0
 30
7.0
 11
6.0
 21
5.0
 31
7.0
  0
LINE
  8
Column_400x400
 10
0.0
 20
0.0
 30
0.0
 11
0.0
 21
0.0
 31
3.5
  0
LINE
  8
Column_400x400
 10
6.0
 20
0.0
 30
0.0
 11
6.0
 21
0.0
 31
3.5
  0
LINE
  8
Column_400x400
 10
0.0
 20
5.0
 30
0.0
 11
0.0
 21
5.0
 31
3.5
  0
LINE
  8
Column_400x400
 10
6.0
 20
5.0
 30
0.0
 11
6.0
 21
5.0
 31
3.5
  0
LINE
  8
Column_400x400
 10
0.0
 20
0.0
 30
3.5
 11
0.0
 21
0.0
 31
7.0
  0
LINE
  8
Column_400x400
 10
6.0
 20
0.0
 30
3.5
 11
6.0
 21
0.0
 31
7.0
  0
LINE
  8
Column_400x400
 10
0.0
 20
5.0
 30
3.5
 11
0.0
 21
5.0
 31
7.0
  0
LINE
  8
Column_400x400
 10
6.0
 20
5.0
 30
3.5
 11
6.0
 21
5.0
 31
7.0
  0
ENDSEC
  0
EOF
