<svg class="plate-contour" viewBox="0 0 520 360" role="img" aria-label="mx contour over the slab panel" data-testid="plate-contour" data-field="mx" data-cells="464"><g shape-rendering="crispEdges"><rect x="84.80" y="311.40" width="14.60" height="14.60" fill="rgb(246,247,250)"></rect><rect x="99.40" y="311.40" width="14.60" height="14.60" fill="rgb(246,243,246)"></rect><rect x="114.00" y="311.40" width="14.60" height="14.60" fill="rgb(245,241,244)"></rect><rect x="128.60" y="311.40" width="14.60" height="14.60" fill="rgb(245,240,242)"></rect><rect x="143.20" y="311.40" width="14.60" height="14.60" fill="rgb(244,238,241)"></rect><rect x="157.80" y="311.40" width="14.60" height="14.60" fill="rgb(244,238,240)"></rect><rect x="172.40" y="311.40" width="14.60" height="14.60" fill="rgb(244,237,240)"></rect><rect x="187.00" y="311.40" width="14.60" height="14.60" fill="rgb(244,236,239)"></rect><rect x="201.60" y="311.40" width="14.60" height="14.60" fill="rgb(244,236,239)"></rect><rect x="216.20" y="311.40" width="14.60" height="14.60" fill="rgb(244,236,239)"></rect><rect x="230.80" y="311.40" width="14.60" height="14.60" fill="rgb(244,236,238)"></rect><rect x="245.40" y="311.40" width="14.60" height="14.60" fill="rgb(244,236,238)"></rect><rect x="260.00" y="311.40" width="14.60" height="14.60" fill="rgb(244,236,238)"></rect><rect x="274.60" y="311.40" width="14.60" height="14.60" fill="rgb(244,236,239)"></rect><rect x="289.20" y="311.40" width="14.60" height="14.60" fill="rgb(244,236,239)"></rect><rect x="303.80" y="311.40" width="14.60" height="14.60" fill="rgb(244,236,239)"></rect><rect x="318.40" y="311.40" width="14.60" height="14.60" fill="rgb(244,237,240)"></rect><rect x="333.00" y="311.40" width="14.60" height="14.60" fill="rgb(244,237,240)"></rect><rect x="347.60" y="311.40" width="14.60" height="14.60" fill="rgb(244,238,241)"></rect><rect x="362.20" y="311.40" width="14.60" height="14.60" fill="rgb(244,239,242)"></rect><rect x="376.80" y="311.40" width="14.60" height="14.60" fill="rgb(245,240,243)"></rect><rect x="391.40" y="311.40" width="14.60" height="14.60" fill="rgb(245,241,244)"></rect><rect x="406.00" y="311.40" width="14.60" height="14.60" fill="rgb(246,243,246)"></rect><rect x="420.60" y="311.40" width="14.60" height="14.60" fill="rgb(246,247,250)"></rect><rect x="84.80" y="296.80" width="14.60" height="14.60" fill="rgb(245,243,246)"></rect><rect x="99.40" y="296.80" width="14.60" height="14.60" fill="rgb(243,233,236)"></rect><rect x="114.00" y="296.80" width="14.60" height="14.60" fill="rgb(241,227,229)"></rect><rect x="128.60" y="296.80" width="14.60" height="14.60" fill="rgb(240,222,224)"></rect><rect x="143.20" y="296.80" width="14.60" height="14.60" fill="rgb(239,218,221)"></rect><rect x="157.80" y="296.80" width="14.60" height="14.60" fill="rgb(239,216,218)"></rect><rect x="172.40" y="296.80" width="14.60" height="14.60" fill="rgb(238,213,216)"></rect><rect x="187.00" y="296.80" width="14.60" height="14.60" fill="rgb(238,212,214)"></rect><rect x="201.60" y="296.80" width="14.60" height="14.60" fill="rgb(237,211,213)"></rect><rect x="216.20" y="296.80" width="14.60" height="14.60" fill="rgb(237,210,213)"></rect><rect x="230.80" y="296.80" width="14.60" height="14.60" fill="rgb(237,210,212)"></rect><rect x="245.40" y="296.80" width="14.60" height="14.60" fill="rgb(237,210,212)"></rect><rect x="260.00" y="296.80" width="14.60" height="14.60" fill="rgb(237,210,212)"></rect><rect x="274.60" y="296.80" width="14.60" height="14.60" fill="rgb(237,210,213)"></rect><rect x="289.20" y="296.80" width="14.60" height="14.60" fill="rgb(237,211,213)"></rect><rect x="303.80" y="296.80" width="14.60" height="14.60" fill="rgb(238,212,214)"></rect><rect x="318.40" y="296.80" width="14.60" height="14.60" fill="rgb(238,213,216)"></rect><rect x="333.00" y="296.80" width="14.60" height="14.60" fill="rgb(238,215,217)"></rect><rect x="347.60" y="296.80" width="14.60" height="14.60" fill="rgb(239,217,219)"></rect><rect x="362.20" y="296.80" width="14.60" height="14.60" fill="rgb(240,219,222)"></rect><rect x="376.80" y="296.80" width="14.60" height="14.60" fill="rgb(240,222,225)"></rect><rect x="391.40" y="296.80" width="14.60" height="14.60" fill="rgb(241,227,229)"></rect><rect x="406.00" y="296.80" width="14.60" height="14.60" fill="rgb(243,233,236)"></rect><rect x="420.60" y="296.80" width="14.60" height="14.60" fill="rgb(245,243,246)"></rect><rect x="84.80" y="282.20" width="14.60" height="14.60" fill="rgb(245,240,243)"></rect><rect x="99.40" y="282.20" width="14.60" height="14.60" fill="rgb(241,225,228)"></rect><rect x="114.00" y="282.20" width="14.60" height="14.60" fill="rgb(238,214,217)"></rect><rect x="128.60" y="282.20" width="14.60" height="14.60" fill="rgb(236,206,209)"></rect><rect x="143.20" y="282.20" width="14.60" height="14.60" fill="rgb(235,200,203)"></rect><rect x="157.80" y="282.20" width="14.60" height="14.60" fill="rgb(234,196,198)"></rect><rect x="172.40" y="282.20" width="14.60" height="14.60" fill="rgb(233,192,194)"></rect><rect x="187.00" y="282.20" width="14.60" height="14.60" fill="rgb(232,189,191)"></rect><rect x="201.60" y="282.20" width="14.60" height="14.60" fill="rgb(232,187,190)"></rect><rect x="216.20" y="282.20" width="14.60" height="14.60" fill="rgb(231,186,188)"></rect><rect x="230.80" y="282.20" width="14.60" height="14.60" fill="rgb(231,186,188)"></rect><rect x="245.40" y="282.20" width="14.60" height="14.60" fill="rgb(231,185,188)"></rect><rect x="260.00" y="282.20" width="14.60" height="14.60" fill="rgb(231,186,188)"></rect><rect x="274.60" y="282.20" width="14.60" height="14.60" fill="rgb(231,187,189)"></rect><rect x="289.20" y="282.20" width="14.60" height="14.60" fill="rgb(232,188,190)"></rect><rect x="303.80" y="282.20" width="14.60" height="14.60" fill="rgb(232,190,192)"></rect><rect x="318.40" y="282.20" width="14.60" height="14.60" fill="rgb(233,192,194)"></rect><rect x="333.00" y="282.20" width="14.60" height="14.60" fill="rgb(233,194,197)"></rect><rect x="347.60" y="282.20" width="14.60" height="14.60" fill="rgb(234,198,200)"></rect><rect x="362.20" y="282.20" width="14.60" height="14.60" fill="rgb(235,202,204)"></rect><rect x="376.80" y="282.20" width="14.60" height="14.60" fill="rgb(236,207,209)"></rect><rect x="391.40" y="282.20" width="14.60" height="14.60" fill="rgb(238,214,217)"></rect><rect x="406.00" y="282.20" width="14.60" height="14.60" fill="rgb(241,225,227)"></rect><rect x="420.60" y="282.20" width="14.60" height="14.60" fill="rgb(245,240,243)"></rect><rect x="84.80" y="267.60" width="14.60" height="14.60" fill="rgb(244,238,241)"></rect><rect x="99.40" y="267.60" width="14.60" height="14.60" fill="rgb(239,218,221)"></rect><rect x="114.00" y="267.60" width="14.60" height="14.60" fill="rgb(236,204,207)"></rect><rect x="128.60" y="267.60" width="14.60" height="14.60" fill="rgb(233,194,196)"></rect><rect x="143.20" y="267.60" width="14.60" height="14.60" fill="rgb(231,185,187)"></rect><rect x="157.80" y="267.60" width="14.60" height="14.60" fill="rgb(229,178,180)"></rect><rect x="172.40" y="267.60" width="14.60" height="14.60" fill="rgb(228,173,175)"></rect><rect x="187.00" y="267.60" width="14.60" height="14.60" fill="rgb(227,169,170)"></rect><rect x="201.60" y="267.60" width="14.60" height="14.60" fill="rgb(226,166,168)"></rect><rect x="216.20" y="267.60" width="14.60" height="14.60" fill="rgb(226,164,166)"></rect><rect x="230.80" y="267.60" width="14.60" height="14.60" fill="rgb(226,163,165)"></rect><rect x="245.40" y="267.60" width="14.60" height="14.60" fill="rgb(226,163,165)"></rect><rect x="260.00" y="267.60" width="14.60" height="14.60" fill="rgb(226,164,165)"></rect><rect x="274.60" y="267.60" width="14.60" height="14.60" fill="rgb(226,165,167)"></rect><rect x="289.20" y="267.60" width="14.60" height="14.60" fill="rgb(227,168,170)"></rect><rect x="303.80" y="267.60" width="14.60" height="14.60" fill="rgb(227,171,172)"></rect><rect x="318.40" y="267.60" width="14.60" height="14.60" fill="rgb(228,174,175)"></rect><rect x="333.00" y="267.60" width="14.60" height="14.60" fill="rgb(229,177,179)"></rect><rect x="347.60" y="267.60" width="14.60" height="14.60" fill="rgb(230,181,183)"></rect><rect x="362.20" y="267.60" width="14.60" height="14.60" fill="rgb(231,186,189)"></rect><rect x="376.80" y="267.60" width="14.60" height="14.60" fill="rgb(233,194,196)"></rect><rect x="391.40" y="267.60" width="14.60" height="14.60" fill="rgb(236,204,206)"></rect><rect x="406.00" y="267.60" width="14.60" height="14.60" fill="rgb(239,218,221)"></rect><rect x="420.60" y="267.60" width="14.60" height="14.60" fill="rgb(244,238,240)"></rect><rect x="84.80" y="253.00" width="14.60" height="14.60" fill="rgb(244,236,239)"></rect><rect x="99.40" y="253.00" width="14.60" height="14.60" fill="rgb(238,214,216)"></rect><rect x="114.00" y="253.00" width="14.60" height="14.60" fill="rgb(234,197,199)"></rect><rect x="128.60" y="253.00" width="14.60" height="14.60" fill="rgb(231,184,186)"></rect><rect x="143.20" y="253.00" width="14.60" height="14.60" fill="rgb(228,174,175)"></rect><rect x="157.80" y="253.00" width="14.60" height="14.60" fill="rgb(226,164,166)"></rect><rect x="172.40" y="253.00" width="14.60" height="14.60" fill="rgb(224,156,158)"></rect><rect x="187.00" y="253.00" width="14.60" height="14.60" fill="rgb(222,150,151)"></rect><rect x="201.60" y="253.00" width="14.60" height="14.60" fill="rgb(221,146,147)"></rect><rect x="216.20" y="253.00" width="14.60" height="14.60" fill="rgb(221,143,145)"></rect><rect x="230.80" y="253.00" width="14.60" height="14.60" fill="rgb(220,142,143)"></rect><rect x="245.40" y="253.00" width="14.60" height="14.60" fill="rgb(220,142,143)"></rect><rect x="260.00" y="253.00" width="14.60" height="14.60" fill="rgb(221,143,145)"></rect><rect x="274.60" y="253.00" width="14.60" height="14.60" fill="rgb(221,146,148)"></rect><rect x="289.20" y="253.00" width="14.60" height="14.60" fill="rgb(222,151,152)"></rect><rect x="303.80" y="253.00" width="14.60" height="14.60" fill="rgb(223,155,156)"></rect><rect x="318.40" y="253.00" width="14.60" height="14.60" fill="rgb(224,158,160)"></rect><rect x="333.00" y="253.00" width="14.60" height="14.60" fill="rgb(225,162,164)"></rect><rect x="347.60" y="253.00" width="14.60" height="14.60" fill="rgb(227,167,169)"></rect><rect x="362.20" y="253.00" width="14.60" height="14.60" fill="rgb(228,174,176)"></rect><rect x="376.80" y="253.00" width="14.60" height="14.60" fill="rgb(231,183,185)"></rect><rect x="391.40" y="253.00" width="14.60" height="14.60" fill="rgb(234,196,198)"></rect><rect x="406.00" y="253.00" width="14.60" height="14.60" fill="rgb(238,213,215)"></rect><rect x="420.60" y="253.00" width="14.60" height="14.60" fill="rgb(244,236,239)"></rect><rect x="84.80" y="238.40" width="14.60" height="14.60" fill="rgb(243,235,238)"></rect><rect x="99.40" y="238.40" width="14.60" height="14.60" fill="rgb(237,210,212)"></rect><rect x="114.00" y="238.40" width="14.60" height="14.60" fill="rgb(233,191,193)"></rect><rect x="128.60" y="238.40" width="14.60" height="14.60" fill="rgb(229,177,179)"></rect><rect x="143.20" y="238.40" width="14.60" height="14.60" fill="rgb(226,166,168)"></rect><rect x="157.80" y="238.40" width="14.60" height="14.60" fill="rgb(224,155,157)"></rect><rect x="172.40" y="238.40" width="14.60" height="14.60" fill="rgb(221,143,145)"></rect><rect x="187.00" y="238.40" width="14.60" height="14.60" fill="rgb(218,132,134)"></rect><rect x="201.60" y="238.40" width="14.60" height="14.60" fill="rgb(216,125,127)"></rect><rect x="216.20" y="238.40" width="14.60" height="14.60" fill="rgb(215,123,124)"></rect><rect x="230.80" y="238.40" width="14.60" height="14.60" fill="rgb(215,121,122)"></rect><rect x="245.40" y="238.40" width="14.60" height="14.60" fill="rgb(215,120,122)"></rect><rect x="260.00" y="238.40" width="14.60" height="14.60" fill="rgb(216,124,125)"></rect><rect x="274.60" y="238.40" width="14.60" height="14.60" fill="rgb(218,131,133)"></rect><rect x="289.20" y="238.40" width="14.60" height="14.60" fill="rgb(219,139,140)"></rect><rect x="303.80" y="238.40" width="14.60" height="14.60" fill="rgb(221,143,145)"></rect><rect x="318.40" y="238.40" width="14.60" height="14.60" fill="rgb(221,147,148)"></rect><rect x="333.00" y="238.40" width="14.60" height="14.60" fill="rgb(222,151,152)"></rect><rect x="347.60" y="238.40" width="14.60" height="14.60" fill="rgb(224,156,158)"></rect><rect x="362.20" y="238.40" width="14.60" height="14.60" fill="rgb(226,164,166)"></rect><rect x="376.80" y="238.40" width="14.60" height="14.60" fill="rgb(228,174,176)"></rect><rect x="391.40" y="238.40" width="14.60" height="14.60" fill="rgb(232,189,191)"></rect><rect x="406.00" y="238.40" width="14.60" height="14.60" fill="rgb(237,209,211)"></rect><rect x="420.60" y="238.40" width="14.60" height="14.60" fill="rgb(243,234,237)"></rect><rect x="84.80" y="223.80" width="14.60" height="14.60" fill="rgb(243,234,237)"></rect><rect x="99.40" y="223.80" width="14.60" height="14.60" fill="rgb(237,208,210)"></rect><rect x="114.00" y="223.80" width="14.60" height="14.60" fill="rgb(232,188,190)"></rect><rect x="128.60" y="223.80" width="14.60" height="14.60" fill="rgb(228,173,175)"></rect><rect x="143.20" y="223.80" width="14.60" height="14.60" fill="rgb(225,162,164)"></rect><rect x="157.80" y="223.80" width="14.60" height="14.60" fill="rgb(223,153,154)"></rect><rect x="172.40" y="223.80" width="14.60" height="14.60" fill="rgb(220,139,141)"></rect><rect x="187.00" y="223.80" width="14.60" height="14.60" fill="rgb(215,119,120)"></rect><rect x="201.60" y="223.80" width="14.60" height="14.60" fill="rgb(211,106,107)"></rect><rect x="216.20" y="223.80" width="14.60" height="14.60" fill="rgb(208,95,96)"></rect><rect x="230.80" y="223.80" width="14.60" height="14.60" fill="rgb(208,92,93)"></rect><rect x="245.40" y="223.80" width="14.60" height="14.60" fill="rgb(209,99,100)"></rect><rect x="260.00" y="223.80" width="14.60" height="14.60" fill="rgb(212,108,109)"></rect><rect x="274.60" y="223.80" width="14.60" height="14.60" fill="rgb(216,125,126)"></rect><rect x="289.20" y="223.80" width="14.60" height="14.60" fill="rgb(218,134,135)"></rect><rect x="303.80" y="223.80" width="14.60" height="14.60" fill="rgb(219,137,138)"></rect><rect x="318.40" y="223.80" width="14.60" height="14.60" fill="rgb(220,139,140)"></rect><rect x="333.00" y="223.80" width="14.60" height="14.60" fill="rgb(220,142,144)"></rect><rect x="347.60" y="223.80" width="14.60" height="14.60" fill="rgb(222,148,149)"></rect><rect x="362.20" y="223.80" width="14.60" height="14.60" fill="rgb(224,156,158)"></rect><rect x="376.80" y="223.80" width="14.60" height="14.60" fill="rgb(227,168,170)"></rect><rect x="391.40" y="223.80" width="14.60" height="14.60" fill="rgb(231,184,186)"></rect><rect x="406.00" y="223.80" width="14.60" height="14.60" fill="rgb(236,205,208)"></rect><rect x="420.60" y="223.80" width="14.60" height="14.60" fill="rgb(243,233,236)"></rect><rect x="84.80" y="209.20" width="14.60" height="14.60" fill="rgb(243,233,236)"></rect><rect x="99.40" y="209.20" width="14.60" height="14.60" fill="rgb(236,206,208)"></rect><rect x="114.00" y="209.20" width="14.60" height="14.60" fill="rgb(231,185,187)"></rect><rect x="128.60" y="209.20" width="14.60" height="14.60" fill="rgb(227,171,173)"></rect><rect x="143.20" y="209.20" width="14.60" height="14.60" fill="rgb(225,161,163)"></rect><rect x="157.80" y="209.20" width="14.60" height="14.60" fill="rgb(224,156,157)"></rect><rect x="172.40" y="209.20" width="14.60" height="14.60" fill="rgb(222,149,151)"></rect><rect x="187.00" y="209.20" width="14.60" height="14.60" fill="rgb(216,125,126)"></rect><rect x="201.60" y="209.20" width="14.60" height="14.60" fill="rgb(199,57,57)"></rect><rect x="216.20" y="209.20" width="14.60" height="14.60" fill="rgb(203,72,73)"></rect><rect x="230.80" y="209.20" width="14.60" height="14.60" fill="rgb(202,69,69)"></rect><rect x="245.40" y="209.20" width="14.60" height="14.60" fill="rgb(196,45,45)"></rect><rect x="260.00" y="209.20" width="14.60" height="14.60" fill="rgb(213,113,114)"></rect><rect x="274.60" y="209.20" width="14.60" height="14.60" fill="rgb(218,134,136)"></rect><rect x="289.20" y="209.20" width="14.60" height="14.60" fill="rgb(219,136,137)"></rect><rect x="303.80" y="209.20" width="14.60" height="14.60" fill="rgb(218,134,135)"></rect><rect x="318.40" y="209.20" width="14.60" height="14.60" fill="rgb(218,134,135)"></rect><rect x="333.00" y="209.20" width="14.60" height="14.60" fill="rgb(219,137,138)"></rect><rect x="347.60" y="209.20" width="14.60" height="14.60" fill="rgb(220,142,143)"></rect><rect x="362.20" y="209.20" width="14.60" height="14.60" fill="rgb(222,151,152)"></rect><rect x="376.80" y="209.20" width="14.60" height="14.60" fill="rgb(226,163,165)"></rect><rect x="391.40" y="209.20" width="14.60" height="14.60" fill="rgb(230,180,182)"></rect><rect x="406.00" y="209.20" width="14.60" height="14.60" fill="rgb(236,203,205)"></rect><rect x="420.60" y="209.20" width="14.60" height="14.60" fill="rgb(243,232,235)"></rect><rect x="84.80" y="194.60" width="14.60" height="14.60" fill="rgb(243,233,236)"></rect><rect x="99.40" y="194.60" width="14.60" height="14.60" fill="rgb(236,205,207)"></rect><rect x="114.00" y="194.60" width="14.60" height="14.60" fill="rgb(231,184,186)"></rect><rect x="128.60" y="194.60" width="14.60" height="14.60" fill="rgb(227,170,172)"></rect><rect x="143.20" y="194.60" width="14.60" height="14.60" fill="rgb(225,162,163)"></rect><rect x="157.80" y="194.60" width="14.60" height="14.60" fill="rgb(225,160,162)"></rect><rect x="172.40" y="194.60" width="14.60" height="14.60" fill="rgb(226,166,168)"></rect><rect x="187.00" y="194.60" width="14.60" height="14.60" fill="rgb(229,176,178)"></rect><rect x="260.00" y="194.60" width="14.60" height="14.60" fill="rgb(227,168,170)"></rect><rect x="274.60" y="194.60" width="14.60" height="14.60" fill="rgb(223,153,154)"></rect><rect x="289.20" y="194.60" width="14.60" height="14.60" fill="rgb(220,141,142)"></rect><rect x="303.80" y="194.60" width="14.60" height="14.60" fill="rgb(218,134,135)"></rect><rect x="318.40" y="194.60" width="14.60" height="14.60" fill="rgb(218,132,133)"></rect><rect x="333.00" y="194.60" width="14.60" height="14.60" fill="rgb(218,133,134)"></rect><rect x="347.60" y="194.60" width="14.60" height="14.60" fill="rgb(219,138,140)"></rect><rect x="362.20" y="194.60" width="14.60" height="14.60" fill="rgb(221,147,148)"></rect><rect x="376.80" y="194.60" width="14.60" height="14.60" fill="rgb(225,160,162)"></rect><rect x="391.40" y="194.60" width="14.60" height="14.60" fill="rgb(229,178,180)"></rect><rect x="406.00" y="194.60" width="14.60" height="14.60" fill="rgb(235,202,204)"></rect><rect x="420.60" y="194.60" width="14.60" height="14.60" fill="rgb(243,232,235)"></rect><rect x="84.80" y="180.00" width="14.60" height="14.60" fill="rgb(243,233,236)"></rect><rect x="99.40" y="180.00" width="14.60" height="14.60" fill="rgb(236,205,207)"></rect><rect x="114.00" y="180.00" width="14.60" height="14.60" fill="rgb(231,184,186)"></rect><rect x="128.60" y="180.00" width="14.60" height="14.60" fill="rgb(227,170,171)"></rect><rect x="143.20" y="180.00" width="14.60" height="14.60" fill="rgb(225,162,164)"></rect><rect x="157.80" y="180.00" width="14.60" height="14.60" fill="rgb(225,163,164)"></rect><rect x="172.40" y="180.00" width="14.60" height="14.60" fill="rgb(229,179,181)"></rect><rect x="187.00" y="180.00" width="14.60" height="14.60" fill="rgb(242,227,230)"></rect><rect x="260.00" y="180.00" width="14.60" height="14.60" fill="rgb(241,224,227)"></rect><rect x="274.60" y="180.00" width="14.60" height="14.60" fill="rgb(227,168,170)"></rect><rect x="289.20" y="180.00" width="14.60" height="14.60" fill="rgb(221,143,145)"></rect><rect x="303.80" y="180.00" width="14.60" height="14.60" fill="rgb(218,134,135)"></rect><rect x="318.40" y="180.00" width="14.60" height="14.60" fill="rgb(217,130,132)"></rect><rect x="333.00" y="180.00" width="14.60" height="14.60" fill="rgb(218,131,133)"></rect><rect x="347.60" y="180.00" width="14.60" height="14.60" fill="rgb(219,136,138)"></rect><rect x="362.20" y="180.00" width="14.60" height="14.60" fill="rgb(221,145,147)"></rect><rect x="376.80" y="180.00" width="14.60" height="14.60" fill="rgb(224,158,160)"></rect><rect x="391.40" y="180.00" width="14.60" height="14.60" fill="rgb(229,177,179)"></rect><rect x="406.00" y="180.00" width="14.60" height="14.60" fill="rgb(235,201,203)"></rect><rect x="420.60" y="180.00" width="14.60" height="14.60" fill="rgb(243,232,234)"></rect><rect x="84.80" y="165.40" width="14.60" height="14.60" fill="rgb(243,233,236)"></rect><rect x="99.40" y="165.40" width="14.60" height="14.60" fill="rgb(236,205,207)"></rect><rect x="114.00" y="165.40" width="14.60" height="14.60" fill="rgb(231,184,186)"></rect><rect x="128.60" y="165.40" width="14.60" height="14.60" fill="rgb(227,170,171)"></rect><rect x="143.20" y="165.40" width="14.60" height="14.60" fill="rgb(225,162,164)"></rect><rect x="157.80" y="165.40" width="14.60" height="14.60" fill="rgb(225,163,164)"></rect><rect x="172.40" y="165.40" width="14.60" height="14.60" fill="rgb(229,179,181)"></rect><rect x="187.00" y="165.40" width="14.60" height="14.60" fill="rgb(242,227,230)"></rect><rect x="260.00" y="165.40" width="14.60" height="14.60" fill="rgb(241,224,227)"></rect><rect x="274.60" y="165.40" width="14.60" height="14.60" fill="rgb(227,168,170)"></rect><rect x="289.20" y="165.40" width="14.60" height="14.60" fill="rgb(221,143,145)"></rect><rect x="303.80" y="165.40" width="14.60" height="14.60" fill="rgb(218,134,135)"></rect><rect x="318.40" y="165.40" width="14.60" height="14.60" fill="rgb(217,130,132)"></rect><rect x="333.00" y="165.40" width="14.60" height="14.60" fill="rgb(218,131,133)"></rect><rect x="347.60" y="165.40" width="14.60" height="14.60" fill="rgb(219,136,138)"></rect><rect x="362.20" y="165.40" width="14.60" height="14.60" fill="rgb(221,145,147)"></rect><rect x="376.80" y="165.40" width="14.60" height="14.60" fill="rgb(224,158,160)"></rect><rect x="391.40" y="165.40" width="14.60" height="14.60" fill="rgb(229,177,179)"></rect><rect x="406.00" y="165.40" width="14.60" height="14.60" fill="rgb(235,201,203)"></rect><rect x="420.60" y="165.40" width="14.60" height="14.60" fill="rgb(243,232,234)"></rect><rect x="84.80" y="150.80" width="14.60" height="14.60" fill="rgb(243,233,236)"></rect><rect x="99.40" y="150.80" width="14.60" height="14.60" fill="rgb(236,205,207)"></rect><rect x="114.00" y="150.80" width="14.60" height="14.60" fill="rgb(231,184,186)"></rect><rect x="128.60" y="150.80" width="14.60" height="14.60" fill="rgb(227,170,172)"></rect><rect x="143.20" y="150.80" width="14.60" height="14.60" fill="rgb(225,162,163)"></rect><rect x="157.80" y="150.80" width="14.60" height="14.60" fill="rgb(225,160,162)"></rect><rect x="172.40" y="150.80" width="14.60" height="14.60" fill="rgb(226,166,168)"></rect><rect x="187.00" y="150.80" width="14.60" height="14.60" fill="rgb(229,176,178)"></rect><rect x="260.00" y="150.80" width="14.60" height="14.60" fill="rgb(227,168,170)"></rect><rect x="274.60" y="150.80" width="14.60" height="14.60" fill="rgb(223,153,154)"></rect><rect x="289.20" y="150.80" width="14.60" height="14.60" fill="rgb(220,141,142)"></rect><rect x="303.80" y="150.80" width="14.60" height="14.60" fill="rgb(218,134,135)"></rect><rect x="318.40" y="150.80" width="14.60" height="14.60" fill="rgb(218,132,133)"></rect><rect x="333.00" y="150.80" width="14.60" height="14.60" fill="rgb(218,133,134)"></rect><rect x="347.60" y="150.80" width="14.60" height="14.60" fill="rgb(219,138,140)"></rect><rect x="362.20" y="150.80" width="14.60" height="14.60" fill="rgb(221,147,148)"></rect><rect x="376.80" y="150.80" width="14.60" height="14.60" fill="rgb(225,160,162)"></rect><rect x="391.40" y="150.80" width="14.60" height="14.60" fill="rgb(229,178,180)"></rect><rect x="406.00" y="150.80" width="14.60" height="14.60" fill="rgb(235,202,204)"></rect><rect x="420.60" y="150.80" width="14.60" height="14.60" fill="rgb(243,232,235)"></rect><rect x="84.80" y="136.20" width="14.60" height="14.60" fill="rgb(243,233,236)"></rect><rect x="99.40" y="136.20" width="14.60" height="14.60" fill="rgb(236,206,208)"></rect><rect x="114.00" y="136.20" width="14.60" height="14.60" fill="rgb(231,185,187)"></rect><rect x="128.60" y="136.20" width="14.60" height="14.60" fill="rgb(227,171,173)"></rect><rect x="143.20" y="136.20" width="14.60" height="14.60" fill="rgb(225,161,163)"></rect><rect x="157.80" y="136.20" width="14.60" height="14.60" fill="rgb(224,156,157)"></rect><rect x="172.40" y="136.20" width="14.60" height="14.60" fill="rgb(222,149,151)"></rect><rect x="187.00" y="136.20" width="14.60" height="14.60" fill="rgb(216,125,126)"></rect><rect x="201.60" y="136.20" width="14.60" height="14.60" fill="rgb(199,57,57)"></rect><rect x="216.20" y="136.20" width="14.60" height="14.60" fill="rgb(203,72,73)"></rect><rect x="230.80" y="136.20" width="14.60" height="14.60" fill="rgb(202,69,69)"></rect><rect x="245.40" y="136.20" width="14.60" height="14.60" fill="rgb(196,45,45)"></rect><rect x="260.00" y="136.20" width="14.60" height="14.60" fill="rgb(213,113,114)"></rect><rect x="274.60" y="136.20" width="14.60" height="14.60" fill="rgb(218,134,136)"></rect><rect x="289.20" y="136.20" width="14.60" height="14.60" fill="rgb(219,136,137)"></rect><rect x="303.80" y="136.20" width="14.60" height="14.60" fill="rgb(218,134,135)"></rect><rect x="318.40" y="136.20" width="14.60" height="14.60" fill="rgb(218,134,135)"></rect><rect x="333.00" y="136.20" width="14.60" height="14.60" fill="rgb(219,137,138)"></rect><rect x="347.60" y="136.20" width="14.60" height="14.60" fill="rgb(220,142,143)"></rect><rect x="362.20" y="136.20" width="14.60" height="14.60" fill="rgb(222,151,152)"></rect><rect x="376.80" y="136.20" width="14.60" height="14.60" fill="rgb(226,163,165)"></rect><rect x="391.40" y="136.20" width="14.60" height="14.60" fill="rgb(230,180,182)"></rect><rect x="406.00" y="136.20" width="14.60" height="14.60" fill="rgb(236,203,205)"></rect><rect x="420.60" y="136.20" width="14.60" height="14.60" fill="rgb(243,232,235)"></rect><rect x="84.80" y="121.60" width="14.60" height="14.60" fill="rgb(243,234,237)"></rect><rect x="99.40" y="121.60" width="14.60" height="14.60" fill="rgb(237,208,210)"></rect><rect x="114.00" y="121.60" width="14.60" height="14.60" fill="rgb(232,188,190)"></rect><rect x="128.60" y="121.60" width="14.60" height="14.60" fill="rgb(228,173,175)"></rect><rect x="143.20" y="121.60" width="14.60" height="14.60" fill="rgb(225,162,164)"></rect><rect x="157.80" y="121.60" width="14.60" height="14.60" fill="rgb(223,153,154)"></rect><rect x="172.40" y="121.60" width="14.60" height="14.60" fill="rgb(220,139,141)"></rect><rect x="187.00" y="121.60" width="14.60" height="14.60" fill="rgb(215,119,120)"></rect><rect x="201.60" y="121.60" width="14.60" height="14.60" fill="rgb(211,106,107)"></rect><rect x="216.20" y="121.60" width="14.60" height="14.60" fill="rgb(208,95,96)"></rect><rect x="230.80" y="121.60" width="14.60" height="14.60" fill="rgb(208,92,93)"></rect><rect x="245.40" y="121.60" width="14.60" height="14.60" fill="rgb(209,99,100)"></rect><rect x="260.00" y="121.60" width="14.60" height="14.60" fill="rgb(212,108,109)"></rect><rect x="274.60" y="121.60" width="14.60" height="14.60" fill="rgb(216,125,126)"></rect><rect x="289.20" y="121.60" width="14.60" height="14.60" fill="rgb(218,134,135)"></rect><rect x="303.80" y="121.60" width="14.60" height="14.60" fill="rgb(219,137,138)"></rect><rect x="318.40" y="121.60" width="14.60" height="14.60" fill="rgb(220,139,140)"></rect><rect x="333.00" y="121.60" width="14.60" height="14.60" fill="rgb(220,142,144)"></rect><rect x="347.60" y="121.60" width="14.60" height="14.60" fill="rgb(222,148,149)"></rect><rect x="362.20" y="121.60" width="14.60" height="14.60" fill="rgb(224,156,158)"></rect><rect x="376.80" y="121.60" width="14.60" height="14.60" fill="rgb(227,168,170)"></rect><rect x="391.40" y="121.60" width="14.60" height="14.60" fill="rgb(231,184,186)"></rect><rect x="406.00" y="121.60" width="14.60" height="14.60" fill="rgb(236,205,208)"></rect><rect x="420.60" y="121.60" width="14.60" height="14.60" fill="rgb(243,233,236)"></rect><rect x="84.80" y="107.00" width="14.60" height="14.60" fill="rgb(243,235,238)"></rect><rect x="99.40" y="107.00" width="14.60" height="14.60" fill="rgb(237,210,212)"></rect><rect x="114.00" y="107.00" width="14.60" height="14.60" fill="rgb(233,191,193)"></rect><rect x="128.60" y="107.00" width="14.60" height="14.60" fill="rgb(229,177,179)"></rect><rect x="143.20" y="107.00" width="14.60" height="14.60" fill="rgb(226,166,168)"></rect><rect x="157.80" y="107.00" width="14.60" height="14.60" fill="rgb(224,155,157)"></rect><rect x="172.40" y="107.00" width="14.60" height="14.60" fill="rgb(221,143,145)"></rect><rect x="187.00" y="107.00" width="14.60" height="14.60" fill="rgb(218,132,134)"></rect><rect x="201.60" y="107.00" width="14.60" height="14.60" fill="rgb(216,125,127)"></rect><rect x="216.20" y="107.00" width="14.60" height="14.60" fill="rgb(215,123,124)"></rect><rect x="230.80" y="107.00" width="14.60" height="14.60" fill="rgb(215,121,122)"></rect><rect x="245.40" y="107.00" width="14.60" height="14.60" fill="rgb(215,120,122)"></rect><rect x="260.00" y="107.00" width="14.60" height="14.60" fill="rgb(216,124,125)"></rect><rect x="274.60" y="107.00" width="14.60" height="14.60" fill="rgb(218,131,133)"></rect><rect x="289.20" y="107.00" width="14.60" height="14.60" fill="rgb(219,139,140)"></rect><rect x="303.80" y="107.00" width="14.60" height="14.60" fill="rgb(221,143,145)"></rect><rect x="318.40" y="107.00" width="14.60" height="14.60" fill="rgb(221,147,148)"></rect><rect x="333.00" y="107.00" width="14.60" height="14.60" fill="rgb(222,151,152)"></rect><rect x="347.60" y="107.00" width="14.60" height="14.60" fill="rgb(224,156,158)"></rect><rect x="362.20" y="107.00" width="14.60" height="14.60" fill="rgb(226,164,166)"></rect><rect x="376.80" y="107.00" width="14.60" height="14.60" fill="rgb(228,174,176)"></rect><rect x="391.40" y="107.00" width="14.60" height="14.60" fill="rgb(232,189,191)"></rect><rect x="406.00" y="107.00" width="14.60" height="14.60" fill="rgb(237,209,211)"></rect><rect x="420.60" y="107.00" width="14.60" height="14.60" fill="rgb(243,234,237)"></rect><rect x="84.80" y="92.40" width="14.60" height="14.60" fill="rgb(244,236,239)"></rect><rect x="99.40" y="92.40" width="14.60" height="14.60" fill="rgb(238,214,216)"></rect><rect x="114.00" y="92.40" width="14.60" height="14.60" fill="rgb(234,197,199)"></rect><rect x="128.60" y="92.40" width="14.60" height="14.60" fill="rgb(231,184,186)"></rect><rect x="143.20" y="92.40" width="14.60" height="14.60" fill="rgb(228,174,175)"></rect><rect x="157.80" y="92.40" width="14.60" height="14.60" fill="rgb(226,164,166)"></rect><rect x="172.40" y="92.40" width="14.60" height="14.60" fill="rgb(224,156,158)"></rect><rect x="187.00" y="92.40" width="14.60" height="14.60" fill="rgb(222,150,151)"></rect><rect x="201.60" y="92.40" width="14.60" height="14.60" fill="rgb(221,146,147)"></rect><rect x="216.20" y="92.40" width="14.60" height="14.60" fill="rgb(221,143,145)"></rect><rect x="230.80" y="92.40" width="14.60" height="14.60" fill="rgb(220,142,143)"></rect><rect x="245.40" y="92.40" width="14.60" height="14.60" fill="rgb(220,142,143)"></rect><rect x="260.00" y="92.40" width="14.60" height="14.60" fill="rgb(221,143,145)"></rect><rect x="274.60" y="92.40" width="14.60" height="14.60" fill="rgb(221,146,148)"></rect><rect x="289.20" y="92.40" width="14.60" height="14.60" fill="rgb(222,151,152)"></rect><rect x="303.80" y="92.40" width="14.60" height="14.60" fill="rgb(223,155,156)"></rect><rect x="318.40" y="92.40" width="14.60" height="14.60" fill="rgb(224,158,160)"></rect><rect x="333.00" y="92.40" width="14.60" height="14.60" fill="rgb(225,162,164)"></rect><rect x="347.60" y="92.40" width="14.60" height="14.60" fill="rgb(227,167,169)"></rect><rect x="362.20" y="92.40" width="14.60" height="14.60" fill="rgb(228,174,176)"></rect><rect x="376.80" y="92.40" width="14.60" height="14.60" fill="rgb(231,183,185)"></rect><rect x="391.40" y="92.40" width="14.60" height="14.60" fill="rgb(234,196,198)"></rect><rect x="406.00" y="92.40" width="14.60" height="14.60" fill="rgb(238,213,215)"></rect><rect x="420.60" y="92.40" width="14.60" height="14.60" fill="rgb(244,236,239)"></rect><rect x="84.80" y="77.80" width="14.60" height="14.60" fill="rgb(244,238,241)"></rect><rect x="99.40" y="77.80" width="14.60" height="14.60" fill="rgb(239,218,221)"></rect><rect x="114.00" y="77.80" width="14.60" height="14.60" fill="rgb(236,204,207)"></rect><rect x="128.60" y="77.80" width="14.60" height="14.60" fill="rgb(233,194,196)"></rect><rect x="143.20" y="77.80" width="14.60" height="14.60" fill="rgb(231,185,187)"></rect><rect x="157.80" y="77.80" width="14.60" height="14.60" fill="rgb(229,178,180)"></rect><rect x="172.40" y="77.80" width="14.60" height="14.60" fill="rgb(228,173,175)"></rect><rect x="187.00" y="77.80" width="14.60" height="14.60" fill="rgb(227,169,170)"></rect><rect x="201.60" y="77.80" width="14.60" height="14.60" fill="rgb(226,166,168)"></rect><rect x="216.20" y="77.80" width="14.60" height="14.60" fill="rgb(226,164,166)"></rect><rect x="230.80" y="77.80" width="14.60" height="14.60" fill="rgb(226,163,165)"></rect><rect x="245.40" y="77.80" width="14.60" height="14.60" fill="rgb(226,163,165)"></rect><rect x="260.00" y="77.80" width="14.60" height="14.60" fill="rgb(226,164,165)"></rect><rect x="274.60" y="77.80" width="14.60" height="14.60" fill="rgb(226,165,167)"></rect><rect x="289.20" y="77.80" width="14.60" height="14.60" fill="rgb(227,168,170)"></rect><rect x="303.80" y="77.80" width="14.60" height="14.60" fill="rgb(227,171,172)"></rect><rect x="318.40" y="77.80" width="14.60" height="14.60" fill="rgb(228,174,175)"></rect><rect x="333.00" y="77.80" width="14.60" height="14.60" fill="rgb(229,177,179)"></rect><rect x="347.60" y="77.80" width="14.60" height="14.60" fill="rgb(230,181,183)"></rect><rect x="362.20" y="77.80" width="14.60" height="14.60" fill="rgb(231,186,189)"></rect><rect x="376.80" y="77.80" width="14.60" height="14.60" fill="rgb(233,194,196)"></rect><rect x="391.40" y="77.80" width="14.60" height="14.60" fill="rgb(236,204,206)"></rect><rect x="406.00" y="77.80" width="14.60" height="14.60" fill="rgb(239,218,221)"></rect><rect x="420.60" y="77.80" width="14.60" height="14.60" fill="rgb(244,238,240)"></rect><rect x="84.80" y="63.20" width="14.60" height="14.60" fill="rgb(245,240,243)"></rect><rect x="99.40" y="63.20" width="14.60" height="14.60" fill="rgb(241,225,228)"></rect><rect x="114.00" y="63.20" width="14.60" height="14.60" fill="rgb(238,214,217)"></rect><rect x="128.60" y="63.20" width="14.60" height="14.60" fill="rgb(236,206,209)"></rect><rect x="143.20" y="63.20" width="14.60" height="14.60" fill="rgb(235,200,203)"></rect><rect x="157.80" y="63.20" width="14.60" height="14.60" fill="rgb(234,196,198)"></rect><rect x="172.40" y="63.20" width="14.60" height="14.60" fill="rgb(233,192,194)"></rect><rect x="187.00" y="63.20" width="14.60" height="14.60" fill="rgb(232,189,191)"></rect><rect x="201.60" y="63.20" width="14.60" height="14.60" fill="rgb(232,187,190)"></rect><rect x="216.20" y="63.20" width="14.60" height="14.60" fill="rgb(231,186,188)"></rect><rect x="230.80" y="63.20" width="14.60" height="14.60" fill="rgb(231,186,188)"></rect><rect x="245.40" y="63.20" width="14.60" height="14.60" fill="rgb(231,185,188)"></rect><rect x="260.00" y="63.20" width="14.60" height="14.60" fill="rgb(231,186,188)"></rect><rect x="274.60" y="63.20" width="14.60" height="14.60" fill="rgb(231,187,189)"></rect><rect x="289.20" y="63.20" width="14.60" height="14.60" fill="rgb(232,188,190)"></rect><rect x="303.80" y="63.20" width="14.60" height="14.60" fill="rgb(232,190,192)"></rect><rect x="318.40" y="63.20" width="14.60" height="14.60" fill="rgb(233,192,194)"></rect><rect x="333.00" y="63.20" width="14.60" height="14.60" fill="rgb(233,194,197)"></rect><rect x="347.60" y="63.20" width="14.60" height="14.60" fill="rgb(234,198,200)"></rect><rect x="362.20" y="63.20" width="14.60" height="14.60" fill="rgb(235,202,204)"></rect><rect x="376.80" y="63.20" width="14.60" height="14.60" fill="rgb(236,207,209)"></rect><rect x="391.40" y="63.20" width="14.60" height="14.60" fill="rgb(238,214,217)"></rect><rect x="406.00" y="63.20" width="14.60" height="14.60" fill="rgb(241,225,227)"></rect><rect x="420.60" y="63.20" width="14.60" height="14.60" fill="rgb(245,240,243)"></rect><rect x="84.80" y="48.60" width="14.60" height="14.60" fill="rgb(245,243,246)"></rect><rect x="99.40" y="48.60" width="14.60" height="14.60" fill="rgb(243,233,236)"></rect><rect x="114.00" y="48.60" width="14.60" height="14.60" fill="rgb(241,227,229)"></rect><rect x="128.60" y="48.60" width="14.60" height="14.60" fill="rgb(240,222,224)"></rect><rect x="143.20" y="48.60" width="14.60" height="14.60" fill="rgb(239,218,221)"></rect><rect x="157.80" y="48.60" width="14.60" height="14.60" fill="rgb(239,216,218)"></rect><rect x="172.40" y="48.60" width="14.60" height="14.60" fill="rgb(238,213,216)"></rect><rect x="187.00" y="48.60" width="14.60" height="14.60" fill="rgb(238,212,214)"></rect><rect x="201.60" y="48.60" width="14.60" height="14.60" fill="rgb(237,211,213)"></rect><rect x="216.20" y="48.60" width="14.60" height="14.60" fill="rgb(237,210,213)"></rect><rect x="230.80" y="48.60" width="14.60" height="14.60" fill="rgb(237,210,212)"></rect><rect x="245.40" y="48.60" width="14.60" height="14.60" fill="rgb(237,210,212)"></rect><rect x="260.00" y="48.60" width="14.60" height="14.60" fill="rgb(237,210,212)"></rect><rect x="274.60" y="48.60" width="14.60" height="14.60" fill="rgb(237,210,213)"></rect><rect x="289.20" y="48.60" width="14.60" height="14.60" fill="rgb(237,211,213)"></rect><rect x="303.80" y="48.60" width="14.60" height="14.60" fill="rgb(238,212,214)"></rect><rect x="318.40" y="48.60" width="14.60" height="14.60" fill="rgb(238,213,216)"></rect><rect x="333.00" y="48.60" width="14.60" height="14.60" fill="rgb(238,215,217)"></rect><rect x="347.60" y="48.60" width="14.60" height="14.60" fill="rgb(239,217,219)"></rect><rect x="362.20" y="48.60" width="14.60" height="14.60" fill="rgb(240,219,222)"></rect><rect x="376.80" y="48.60" width="14.60" height="14.60" fill="rgb(240,222,225)"></rect><rect x="391.40" y="48.60" width="14.60" height="14.60" fill="rgb(241,227,229)"></rect><rect x="406.00" y="48.60" width="14.60" height="14.60" fill="rgb(243,233,236)"></rect><rect x="420.60" y="48.60" width="14.60" height="14.60" fill="rgb(245,243,246)"></rect><rect x="84.80" y="34.00" width="14.60" height="14.60" fill="rgb(246,247,250)"></rect><rect x="99.40" y="34.00" width="14.60" height="14.60" fill="rgb(246,243,246)"></rect><rect x="114.00" y="34.00" width="14.60" height="14.60" fill="rgb(245,241,244)"></rect><rect x="128.60" y="34.00" width="14.60" height="14.60" fill="rgb(245,240,242)"></rect><rect x="143.20" y="34.00" width="14.60" height="14.60" fill="rgb(244,238,241)"></rect><rect x="157.80" y="34.00" width="14.60" height="14.60" fill="rgb(244,238,240)"></rect><rect x="172.40" y="34.00" width="14.60" height="14.60" fill="rgb(244,237,240)"></rect><rect x="187.00" y="34.00" width="14.60" height="14.60" fill="rgb(244,236,239)"></rect><rect x="201.60" y="34.00" width="14.60" height="14.60" fill="rgb(244,236,239)"></rect><rect x="216.20" y="34.00" width="14.60" height="14.60" fill="rgb(244,236,239)"></rect><rect x="230.80" y="34.00" width="14.60" height="14.60" fill="rgb(244,236,238)"></rect><rect x="245.40" y="34.00" width="14.60" height="14.60" fill="rgb(244,236,238)"></rect><rect x="260.00" y="34.00" width="14.60" height="14.60" fill="rgb(244,236,238)"></rect><rect x="274.60" y="34.00" width="14.60" height="14.60" fill="rgb(244,236,239)"></rect><rect x="289.20" y="34.00" width="14.60" height="14.60" fill="rgb(244,236,239)"></rect><rect x="303.80" y="34.00" width="14.60" height="14.60" fill="rgb(244,236,239)"></rect><rect x="318.40" y="34.00" width="14.60" height="14.60" fill="rgb(244,237,240)"></rect><rect x="333.00" y="34.00" width="14.60" height="14.60" fill="rgb(244,237,240)"></rect><rect x="347.60" y="34.00" width="14.60" height="14.60" fill="rgb(244,238,241)"></rect><rect x="362.20" y="34.00" width="14.60" height="14.60" fill="rgb(244,239,242)"></rect><rect x="376.80" y="34.00" width="14.60" height="14.60" fill="rgb(245,240,243)"></rect><rect x="391.40" y="34.00" width="14.60" height="14.60" fill="rgb(245,241,244)"></rect><rect x="406.00" y="34.00" width="14.60" height="14.60" fill="rgb(246,243,246)"></rect><rect x="420.60" y="34.00" width="14.60" height="14.60" fill="rgb(246,247,250)"></rect></g><rect x="201.60000000000002" y="150.8" width="58.4" height="58.4" fill="#fff" stroke="#c17f26" stroke-width="1.5"></rect><line x1="84.80000000000001" y1="326" x2="84.80000000000001" y2="34" stroke="#142b44" stroke-width="2.5" stroke-dasharray="7 4" data-edge="0" data-condition="simple"></line><line x1="435.2" y1="326" x2="435.2" y2="34" stroke="#142b44" stroke-width="2.5" stroke-dasharray="7 4" data-edge="1" data-condition="simple"></line><line x1="84.80000000000001" y1="326" x2="435.2" y2="326" stroke="#142b44" stroke-width="2.5" stroke-dasharray="7 4" data-edge="2" data-condition="simple"></line><line x1="84.80000000000001" y1="34" x2="435.2" y2="34" stroke="#142b44" stroke-width="2.5" stroke-dasharray="7 4" data-edge="3" data-condition="simple"></line><circle cx="252.70000000000002" cy="143.5" r="5" fill="none" stroke="#142b44" stroke-width="2"></circle><text x="84.80000000000001" y="342" font-size="11" fill="#53667c">0,0</text><text x="435.2" y="342" font-size="11" fill="#53667c" text-anchor="end">x = 6 m</text><text x="78.80000000000001" y="38" font-size="11" fill="#53667c" text-anchor="end">y</text><g font-size="11" fill="#142b44"><text x="34" y="352">min 0.16 kN·m/m</text><text x="486" y="352" text-anchor="end">max 15.13 kN·m/m</text></g></svg>